<?xml version="1.0" encoding="UTF-8" standalone="no"?>
<!-- Created with Inkscape (http://www.inkscape.org/) -->

<svg
   xmlns:dc="http://purl.org/dc/elements/1.1/"
   xmlns:cc="http://creativecommons.org/ns#"
   xmlns:rdf="http://www.w3.org/1999/02/22-rdf-syntax-ns#"
   xmlns:svg="http://www.w3.org/2000/svg"
   xmlns="http://www.w3.org/2000/svg"
   xmlns:sodipodi="http://sodipodi.sourceforge.net/DTD/sodipodi-0.dtd"
   xmlns:inkscape="http://www.inkscape.org/namespaces/inkscape"
   width="744.09448819"
   height="1052.3622047"
   id="svg3843"
   version="1.1"
   inkscape:version="0.48.1 "
   sodipodi:docname="JurassicCoffee.png">
  <defs
     id="defs3845" />
  <sodipodi:namedview
     id="base"
     pagecolor="#ffffff"
     bordercolor="#666666"
     borderopacity="1.0"
     inkscape:pageopacity="0.0"
     inkscape:pageshadow="2"
     inkscape:zoom="2.8"
     inkscape:cx="121.79727"
     inkscape:cy="562.88343"
     inkscape:document-units="px"
     inkscape:current-layer="g4101"
     showgrid="false"
     inkscape:window-width="1531"
     inkscape:window-height="891"
     inkscape:window-x="2163"
     inkscape:window-y="110"
     inkscape:window-maximized="0" />
  <metadata
     id="metadata3848">
    <rdf:RDF>
      <cc:Work
         rdf:about="">
        <dc:format>image/svg+xml</dc:format>
        <dc:type
           rdf:resource="http://purl.org/dc/dcmitype/StillImage" />
        <dc:title></dc:title>
      </cc:Work>
    </rdf:RDF>
  </metadata>
  <g
     inkscape:label="Layer 1"
     inkscape:groupmode="layer"
     id="layer1">
    <g
       id="g4101"
       transform="matrix(0.2592,0,0,0.2592,296.2212,384.36735)">
      <g
         style="fill:#000000"
         transform="translate(15.657364,-0.75761442)"
         id="g4090">
        <g
           style="fill:#000000"
           id="g4081">
          <g
             style="fill:#000000"
             id="g4074">
            <g
               style="fill:#000000"
               id="g4069"
               transform="translate(-18.182746,-15.404825)">
              <a
                 style="fill:#000000"
                 transform="translate(-95.459416,-105.56094)"
                 id="a4066">
                <path
                   sodipodi:type="arc"
                   style="fill:#000000;fill-opacity:1"
                   id="path4062"
                   sodipodi:cx="-602.0509"
                   sodipodi:cy="436.67419"
                   sodipodi:rx="46.467018"
                   sodipodi:ry="42.931484"
                   d="m -555.58389,436.67419 c 0,23.71041 -20.80399,42.93149 -46.46701,42.93149 -25.66303,0 -46.46702,-19.22108 -46.46702,-42.93149 0,-23.7104 20.80399,-42.93148 46.46702,-42.93148 25.66302,0 46.46701,19.22108 46.46701,42.93148 z" />
              </a>
              <path
                 transform="matrix(0.79012345,0,0,0.86666668,-114.06618,-53.284249)"
                 d="m -697.51033,445.2605 c 0,20.92094 -18.31656,37.88072 -40.91118,37.88072 -22.59462,0 -40.91118,-16.95978 -40.91118,-37.88072 0,-20.92095 18.31656,-37.88072 40.91118,-37.88072 22.59462,0 40.91118,16.95977 40.91118,37.88072 z"
                 sodipodi:ry="37.880722"
                 sodipodi:rx="40.911179"
                 sodipodi:cy="445.2605"
                 sodipodi:cx="-738.42151"
                 id="path4064"
                 style="fill:#ffffff;fill-opacity:1"
                 sodipodi:type="arc" />
            </g>
            <rect
               style="fill:#000000;fill-opacity:1"
               id="rect3954"
               width="114.28537"
               height="151.42879"
               x="-900.0235"
               y="-147.23105"
               ry="0"
               transform="matrix(0.8660254,-0.5,0.5,0.8660254,0,0)" />
          </g>
          <rect
             ry="7.2249589"
             y="318.79074"
             x="-853.42859"
             height="947.85718"
             width="11.428572"
             id="rect3958"
             style="fill:#000000;fill-opacity:1" />
        </g>
        <path
           sodipodi:type="arc"
           style="fill:#000000;fill-opacity:1"
           id="path4060"
           sodipodi:cx="-797.14288"
           sodipodi:cy="1176.6479"
           sodipodi:rx="237.14285"
           sodipodi:ry="38.57143"
           d="m -560.00003,1176.6479 c 0,21.3025 -106.17247,38.5715 -237.14285,38.5715 -130.97038,0 -237.14282,-17.269 -237.14282,-38.5715 0,-21.3024 106.17244,-38.5714 237.14282,-38.5714 130.97038,0 237.14285,17.269 237.14285,38.5714 z"
           transform="translate(54.285715,68.571429)" />
      </g>
      <path
         style="fill:#000000;fill-opacity:1"
         inkscape:connector-curvature="0"
         id="_226099472"
         class="fil6"
         d="m -321.42081,655.96159 c -24.92686,-16.83535 -27.47747,-19.23792 -42.48601,-30.3622 -19.39172,-14.37818 -30.97961,-23.81968 -29.28141,-53.69541 1.00219,-18.77626 -8.31482,-38.87791 -27.95764,-60.2975 -16.08781,-14.98627 -34.55003,-34.95885 -55.38446,-59.9128 -36.62929,-47.16528 -69.39962,-98.2546 -98.31099,-153.2605 -1.3524,-1.59344 -2.55722,-3.16205 -3.6365,-4.71826 -3.93605,2.08983 -8.67385,3.49712 -14.17815,3.71802 -14.35877,0.60809 -29.6096,4.4651 -42.80539,10.99771 -4.12107,2.38519 -9.35446,4.13251 -14.82132,5.77311 -0.90307,0.0968 -3.53738,1.52146 -7.90735,3.21666 -2.14753,0.57582 -5.77302,-0.1787 -5.72676,-3.44252 -2.80392,0.28046 -6.85891,2.5217 -9.85445,3.52194 -1.28632,0.57334 -1.98455,-0.007 -3.96469,0.4145 -1.93388,0.067 -6.03733,1.84163 -10.42051,3.15957 -1.71583,0.20849 -3.19598,-0.21841 -4.44045,-1.27823 l -0.002,0.002 c -0.70043,0.54107 -1.59909,1.21865 -2.62991,1.30552 -3.79729,0.31522 -6.6827,0.61554 -10.05709,-2.97342 -2.33696,-2.48944 -3.76645,-7.23253 -3.0484,-6.52764 1.6894,1.66045 8.1232,3.20177 9.83683,2.17671 0.72686,-0.45669 2.00657,-1.62074 3.04179,-2.05013 0.57708,-2.44724 2.34137,-3.53932 5.29946,-3.28615 3.13211,0.38967 6.0043,-0.002 8.61659,-1.19136 3.69817,-1.76718 6.47785,-2.75501 8.32364,-2.96846 1.6938,-0.12658 2.26207,-1.20873 4.02856,-2.00049 1.76208,-0.7992 4.74,-1.31794 6.49768,-1.74236 -2.33476,-1.20128 -7.03512,-2.25861 -14.09887,-3.15957 -2.23564,-0.21345 -3.76425,-1.75229 -4.59022,-3.68328 -0.77752,0.0174 -2.42947,-0.39463 -3.07043,-0.79423 -1.56165,-1.00521 -3.1299,-2.54405 -4.18274,-4.21443 -0.45594,-0.75949 -0.81937,-1.56365 -1.00219,-2.35292 -1.47134,-5.84261 1.80393,-8.89546 1.75327,-8.31468 -0.1762,2.02531 1.42068,6.9198 6.83248,7.20523 l 0.27312,0.0471 c 1.16518,-1.70512 2.95369,-1.73739 5.38977,-0.0943 9.33463,5.06822 12.28612,2.95109 21.41812,1.58103 4.68053,-0.69992 5.85451,-4.21443 11.61873,-6.25214 8.19809,-2.89648 10.92491,-2.53908 24.28149,-6.13797 12.13415,-3.26878 18.00629,-7.05133 22.61193,-16.81301 l -2.12111,-4.25413 c -5.96244,7.02155 -22.36523,14.59659 -37.04778,6.77087 -12.98655,-6.91979 -28.10963,-11.39234 -42.49042,-12.43477 -4.63428,-0.0223 -9.99542,-1.1864 -15.51954,-2.5639 -0.8436,-0.37975 -3.76205,-0.48399 -8.33465,-1.24348 -2.14093,-0.60561 -5.04837,-3.15461 -3.67615,-6.02628 -2.60348,-1.20873 -7.12102,-1.31793 -10.18924,-1.98807 -1.37663,-0.15637 -1.75988,-1.03251 -3.68716,-1.68776 -1.74666,-0.94315 -6.11002,-1.49415 -10.54386,-2.59616 -1.6079,-0.70737 -2.74665,-1.85405 -3.42064,-3.44252 l 0,0.002 c -0.8414,0.12162 -1.91847,0.25068 -2.87,-0.20352 -3.49993,-1.68776 -6.18491,-2.92131 -7.71351,-7.85551 -1.05725,-3.42266 -0.38766,-8.37175 -0.0396,-7.37399 0.82377,2.34548 5.90298,7.05382 7.84347,7.03148 0.83479,-0.0273 2.44269,-0.3996 3.53958,-0.24324 1.51099,-1.86894 3.52417,-1.92602 6.04615,-0.16877 2.6211,1.97318 5.3325,3.11242 8.13421,3.41026 4.00654,0.34996 6.87653,0.91585 8.60557,1.68527 1.55504,0.76445 2.49776,0.10176 4.38979,0.31273 1.89424,0.206 4.74882,1.29063 6.48226,1.82178 -1.58367,-2.27599 -5.32149,-5.65149 -11.22446,-10.11412 -1.90085,-1.35268 -2.62771,-3.50953 -2.57264,-5.65149 -0.69603,-0.38967 -1.99336,-1.61081 -2.40084,-2.30081 -0.97355,-1.70016 -1.74006,-3.88183 -1.99336,-5.90962 -0.0947,-0.91089 -0.0859,-1.81433 0.0727,-2.60857 1.08148,-5.95182 5.23559,-6.95951 4.95586,-6.47304 -0.98897,1.70761 -1.56826,6.88257 3.11888,9.94534 l 0.22247,0.17871 c 1.73345,-0.90593 3.33474,-0.0124 4.8281,2.71033 6.21355,9.34222 9.70027,8.99722 18.36311,12.51669 4.44044,1.80689 6.92278,-0.70737 12.86981,0.47406 8.4624,1.68031 10.74209,3.41274 24.06564,7.14565 13.68918,3.8322 24.13172,1.04492 33.78353,-7.86295 -13.22884,-29.84595 -20.48642,-52.28812 -20.43576,-65.58911 1.61231,-18.82094 12.25529,-39.93276 31.93555,-63.330505 -42.36928,-49.70436 -50.04315,-53.65569 -59.71698,-76.75559 -27.03475,-50.36457 -48.66872,-38.67687 -90.28471,-21.7893995 -24.68677,10.0198 -48.68634,20.4987695 -70.46127,27.0884595 -37.66231,3.22907 -42.21069,1.39736 -74.69688,12.2238 -25.34756,8.44374 -50.35592,20.38212 -94.10183,30.33491 -14.78831,-0.55101 -27.92681,-4.7828 -45.86261,-27.70399 -4.3986,-4.82996 -6.284,-13.852 -0.6872,-20.31511 1.5705,-0.26557 3.1607,-0.52618 4.7708,-0.77438 -0.9229,-5.1948095 -3.229,-10.6849695 -0.033,-18.6347895 2.3414,5.51995 4.7907,13.2042 6.806,17.6469595 l 2.6916,-0.36733 c -0.1453,-8.3469395 -0.9361,-20.62784 3.718,-27.09591 2.1343,7.5353305 3.6894,18.1756305 5.0374,25.9467405 l 3.6166,-0.46661 c 0.3238,-9.08409003 1.5815,-21.7695505 3.8172,-25.8797305 0.066,4.73068 3.1981,16.34640047 6.2708,24.5469005 2.97128,-0.40457 5.96241,-0.83147 8.96456,-1.27823 -0.75109,-10.00739 0.61453,-21.7943605 2.99114,-29.1907005 1.22024,5.81034 5.20475,18.2600105 8.62759,27.2721205 1.94931,-0.34996 3.89421,-0.7297 5.8347,-1.12186 -1.22244,-7.60234 -2.44709,-18.1706605 -1.26429,-23.1892405 1.90525,5.10049 6.5175,14.5246105 10.33461,21.1862805 2.93387,-0.70985003 5.8413,-1.48672003 8.73333,-2.32563 -1.14315,-5.76318 -2.15635,-12.9857805 -0.79955,-17.5675405 1.51099,2.17423 4.98449,9.8038705 7.96241,15.3263005 1.1828,-0.40208 2.35679,-0.82402 3.52857,-1.25092 -1.0176,-4.15734 -1.83917,-9.3918605 -1.36121,-14.0505605 1.70041,2.51923 4.52856,7.93493 6.81486,11.9259705 1.15857,-0.47406 2.30833,-0.96797 3.44928,-1.47926 -1.27311,-4.9739105 -2.7048,-11.5462305 -2.42727,-13.0478305 1.57926,1.71009 6.1761,6.25462 9.5615,9.57056 1.66737,-0.88359 3.31932,-1.80689 4.94484,-2.77239 -2.52859,-6.0089 -2.49775,-12.30819 -2.16516,-14.11757 1.5242,1.64805 5.95804,6.23477 9.18486,9.54078 13.84556,-9.85599 25.53918,-23.53176 33.45974,-42.88882 10.13859,-15.65143 11.09011,-18.8954 25.99072,-33.08743 -1.1872,-22.367695 3.84795,-61.138885 -8.02629,-92.945615 -6.03513,-6.91731 -13.87419,-10.9977 -23.51719,-12.24118 -3.27747,-0.30032 -6.46024,-0.58575 -9.56811,-0.89352 -0.95593,6.07095 -1.96252,13.10244 -2.08807,15.09051 -3.86116,-3.85205 -5.46025,-10.37224 -6.31706,-15.93687 l -5.1629,-0.55844 c -0.97355,7.05133 -2.04182,15.66633 -2.38983,20.85617 -4.97348,-8.18064 -5.64747,-15.67378 -5.50651,-21.77203 -1.49116,-0.18118 -2.95369,-0.35492 -4.403,-0.54355 -0.53523,9.95526 0.63215,23.57395 1.24888,28.46099 -9.96018,-11.46183 -10.72888,-21.92591 -10.65179,-29.769 -1.39866,-0.20353 -2.77528,-0.41202 -4.12768,-0.62547 -1.81054,10.8066 -2.49115,26.99166 -2.31274,33.80473 -8.50204,-10.5435 -9.7355,-25.2915 -9.63859,-35.91938 -1.47354,-0.2904 -2.92285,-0.59072 -4.35234,-0.89848 -2.41405,6.72371 -5.60343,15.6837 -6.51971,18.54296 -0.99338,-3.06526 -1.12553,-12.3504 -1.06386,-20.30021 -2.02419,-0.50881 -4.00653,-1.04244 -5.94923,-1.59592 -1.78191,5.47279 -3.74002,12.14686 -5.09022,19.30493 -2.09687,-3.35317 -2.2885,-13.50948 -2.16956,-21.55114 -1.70482,-0.56837 -3.37219,-1.16157 -5.02194,-1.77959 -2.06163,9.54574 -4.01754,21.52632 -3.92944,31.63051 -8.11659,-9.59042 -8.26417,-24.50967 -7.47343,-36.35622 -2.24886,-0.97542 -4.58362,-1.998 -6.97562,-3.06774 -0.3877,8.80114 -0.5881,20.31758 1.05502,34.38303 -9.82802,-8.69938 -11.97772,-26.0485 -12.33682,-39.68208 -1.892,-0.94068 -3.8017,-1.91113 -5.6959,-2.92131 -0.7357,9.2901 -1.7158,21.10934 -1.5727,24.81992 -4.6122,-4.22435 -7.8522,-19.79885 -8.9513,-30.88838 -2.0947,-1.31298 -4.1563,-2.68056 -6.1563,-4.10274 -0.084,8.95007 0.2797,21.0597 0.8458,25.42056 -5.02,-6.36778 -9.7644,-22.76878 -11.6697,-34.28274 -6.7818,-6.51027 -12.1297,-13.98106 -14.8807,-22.59357 1.9184,-14.24167 3.4536,-17.48067 8.1672,-30.87101 6.5219,-13.89916 17.797,-25.54218 25.3498,-28.10608 7.5439,-1.72746 18.8675,-3.57406 33.97512,-5.53236 25.81231,-6.74357 62.63984,-4.63387 110.46717,6.33901 19.48643,6.3539 38.51912,8.33949 57.10028,5.95926 15.62307,-5.65397 27.88716,-3.77263 36.8011,5.63164 13.38081,-2.82451 26.12727,-1.70265 38.23278,3.36558 40.09178,-17.0215 92.91682,-18.2203 132.74649,1.62571 57.34918,28.58509 86.04249,88.37379 124.28849,187.01062 7.51088,18.30965 34.517,41.672635 81.01395,70.083995 71.5802,26.11303 119.32163,56.1302405 177.75008,92.03969 62.18169,38.22019 123.43609,82.374825 183.758795,132.441565 22.8079,18.92766 37.594,35.41057 59.5958,55.51718 14.9381,13.98106 34.55,32.93603 60.1928,54.7577 35.631505,29.357 49.118005,54.07019 82.361905,99.95477 70.2895,76.33365 97.1326,132.91561 170.6907,217.45225 36.0963,47.07841 74.4238,97.31143 114.9847,150.69413 42.8032,50.4812 102.5973,110.0341 179.3756,178.6562 64.5341,57.6592 149.4158,92.01987 221.2824,139.52267 68.1661,45.0556 119.348,76.0284 193.30704,102.5931 55.2964,19.8584 98.9321,49.1087 156.2879,50.2504 93.4124,1.8615 180.1752,2.6955 260.2839,2.4845 40.7966,0.5336 81.6835,4.5793 122.6695,12.132 2.4031,0.3723 3.7643,0.5758 6.1012,0.9258 21.6737,3.2687 36.3915,9.372 36.6954,13.224 0.2621,3.2738 -13.4028,4.9838 -35.3143,4.0754 -11.4403,-0.474 -25.7903,-1.0672 -39.0566,-1.5487 -98.1744,-2.6657 -199.0977,3.0901 -302.761,17.2697 -59.2324,5.5522 -85.4742,9.9379 -139.7706,0.5882 -37.3165,-6.4333 -72.807,-11.5313 -106.46724,-15.2965 -86.6284,-9.444 -161.2504,-48.4882 -242.5044,-86.552 -69.7807,-30.33 -144.3961,-53.1047 -209.776,-93.2311 -129.5417,-59.7887 -217.8859,-112.05197 -325.4434,-220.30647 -34.528,-34.7529 -64.7962,-55.6388 -90.8023,-62.6604 -8.936,-0.9506 -17.6627,-1.4048 -26.175805,-1.3601 7.321505,30.4987 12.530705,72.6677 15.614305,126.5096 8.643,44.9166 43.8076,81.7618 49.4462,121.88807 0.5947,11.442 2.4956,26.669 7.6805,42.9385 6.1034,19.1461 7.0528,35.207 2.4009,55.2615 -7.5043,19.2876 -10.0065,30.2356 -7.5043,45.7357 4.4581,6.7262 7.3765,9.5358 7.0043,12.3404 2.6585,3.939 2.2642,5.7434 1.0264,7.0836 3.5792,3.3681 4.1497,6.689 18.0789,13.0677 1.0683,0.4766 -7.2091,2.7451 -16.9446,1.5835 -1.8083,-0.2134 -3.8589,-0.5634 -5.8391,-1.0573 -0.1982,2.0998 -0.8061,3.4127 -2.7885,3.0926 -1.2555,10.4144 -1.1608,20.4268 -2.7114,30.8933 -1.7841,12.0352 0.1542,26.1155 -8.5703,38.8755 -8.132,11.8961 -24.5767,7.992 -49.096,9.0816 -15.482105,-0.8489 -42.768005,0.2556 -67.756505,-0.4418 -3.511,-0.097 -11.4932,-1.174 -20.5327,-0.6851 -28.2484,1.5339 -33.7791,0.7769 -36.1579,-2.822 -0.5969,-0.9084 -0.3502,-2.817 0.2599,-5.4554 -9.4205,-1.385 -20.7728,0.4443 -34.0633,5.5348 7.0131,-17.0463 19.6473,-24.8075 37.9156,-23.3679 0.1278,-1.0598 0.2335,-2.1246 0.304,-3.2167 0.1696,-2.6979 18.0085,3.6337 23.6185,1.1318 8.8303,-3.9339 14.5262,1.3304 26.4885,-0.968 6.4823,-1.2459 13.2024,-4.8125 20.3345,-6.2794 4.8831,-1.0002 10.361,0.1861 14.5459,-1.0325 10.3677,-3.0131 19.0482,-15.1972 29.4599,-22.0897 14.495305,-9.5929 16.748605,-27.7065 18.092105,-45.284 0.989,-12.9982 1.4009,-28.5925 1.3304,-45.1747 0.3194,-16.5127 -2.044,-34.5493 -7.0924,-54.1049 -8.5703,-12.5266 -12.973305,-31.3228 -13.202405,-56.381 -1.1585,-24.2788 -14.8257,-60.56297 -41.0036,-108.85267 -3.707,-6.267 -25.4445,-19.4414 -36.7989,-31.2458 -7.1849,0.2582 11.7817,30.1984 16.6473,39.8583 15.9798,31.0622 18.5283,55.3385 7.6452,72.83157 -14.1341,22.1841 -18.3257,28.2575 -24.1119,32.6978 -13.5196,17.5749 -13.9205,13.2141 -27.6295,45.5569 -1.5616,3.6883 -3.2995,7.853 -5.2488,12.5812 1.6652,9.1859 2.2225,16.7113 1.6674,22.5539 0.348,3.0603 -0.5969,3.6957 -1.9801,3.4351 1.1673,4.5519 2.7951,10.0347 3.6651,11.8366 0.5617,1.6307 2.2863,4.1027 5.4757,7.2747 2.7026,2.6855 -14.4976,-2.1246 -20.0129,-16.8155 -0.892,1.2038 -1.8854,2.3331 -3.3568,2.9213 -2.5241,1.0027 -1.1343,10.0645 -1.4405,17.3293 8.7972,28.6496 -10.3081,27.0388 -25.744,45.3485 -10.45574,12.4 -21.70003,33.6185 -34.99053,46.0235 -4.80829,4.485 -14.898405,8.2601 -18.246365,9.4241 -3.75103,1.3081 -5.97346,-0.6751 -7.62982,-3.8173 -8.36548,4.207 -14.6407,12.1395 -17.49087,32.941 -7.61219,-22.4918 -5.36774,-38.8009 6.72895,-48.8704 -6.84128,1.0027 -10.91169,10.3673 -17.71113,10.3276 -8.73112,-0.052 -55.2567,24.2863 -58.96148,13.507 -0.31057,-0.9084 -0.40969,-2.7947 -0.37445,-5.165 -9.03067,-1.0822 -19.14502,2.0997 -30.36068,9.5556 9.32362,-18.9947 19.98863,-28.2847 31.95977,-27.8107 0.18723,-1.2608 0.36784,-2.276 0.52422,-2.9436 2.66515,-11.3775 19.42476,-3.2936 34.42889,-20.8637 1.45813,-1.71 19.67806,-10.33 26.00614,-22.3329 8.78398,-16.6666 7.93378,1.8863 33.3342,-49.9551 3.91623,-17.4037 31.924525,-38.9052 42.796575,-45.5246 27.18898,-34.8075 42.83618,-56.6962 46.53218,-93.46187 -4.6166,-30.7023 2.2731,-35.1128 0.2225,-50.8262 -1.7379,-13.3259 -13.0791,-27.6221 -29.092,-46.937 -36.30552,-25.0855 -50.24359,-34.8472 -64.899705,-50.6103 -19.70008,-21.2086 -37.95085,-42.035 -58.42625,-62.5338 -24.95109,-24.9812 -41.18868,-46.5249 -42.16664,-66.2964 -30.32764,-9.4639 -56.32937,-20.8314 -108.52887,-57.15534 z" />
    </g>
  </g>
</svg>
